<svg id="Layer_1" enable-background="new 0 0 512.001 512.001" height="512" viewBox="0 0 512.001 512.001" width="512" xmlns="http://www.w3.org/2000/svg"><g><g><path d="m412.34 465.944-134.309-361.341c-1.092-2.938-3.896-4.887-7.03-4.887h-30c-3.134 0-5.938 1.949-7.03 4.887l-134.309 361.341c-.855 2.303-.53 4.878.872 6.895s3.702 3.219 6.158 3.219h298.617c2.456 0 4.756-1.202 6.158-3.219s1.728-4.593.873-6.895zm-85.23-110.584-71.146 33.857-71.181-33.857zm-155.167-15 84.034-71.496 83.97 71.496zm95.608-81.343 39.409-33.529 36.48 98.145zm-11.569-9.85-33.861-28.831h67.749zm-40.353-43.832 40.371-61.567 40.371 61.567zm-10.59 20.158 39.369 33.521-75.799 64.49zm-49.308 132.658 82.777 39.372-118.344 56.317zm100.235 47.676 116.115 55.229h-232.174zm17.456-8.306 82.831-39.417 35.587 95.742zm6.629-244.429-15.082-23 4.169-6.359zm-24.05-36.678-1.113-1.698h2.227zm-13.138 7.319 4.169 6.359-15.082 23z" fill="#9bc9e0"/></g><path d="m437.921 483.661v20.84c0 4.14-3.36 7.5-7.5 7.5h-348.84c-4.14 0-7.5-3.36-7.5-7.5v-20.84c0-12.47 10.15-22.6 22.61-22.6h318.62c12.46 0 22.61 10.13 22.61 22.6z" fill="#325a93"/><path d="m437.921 483.661v20.84c0 4.14-3.36 7.5-7.5 7.5h-40c4.14 0 7.5-3.36 7.5-7.5v-20.84c0-12.47-10.15-22.6-22.61-22.6h40c12.46 0 22.61 10.13 22.61 22.6z" fill="#132d77"/><path d="m294.231 79.851c0 21.07-17.15 38.22-38.23 38.22-4.38 0-8.58-.74-12.5-2.1-14.96-5.19-25.73-19.42-25.73-36.12s10.77-30.93 25.73-36.12c3.92-1.36 8.12-2.1 12.5-2.1 21.08 0 38.23 17.14 38.23 38.22z" fill="#325a93"/><path d="m294.231 79.851c0 21.07-17.15 38.22-38.23 38.22-4.38 0-8.58-.74-12.5-2.1 14.96-5.19 25.73-19.42 25.73-36.12s-10.77-30.93-25.73-36.12c3.92-1.36 8.12-2.1 12.5-2.1 21.08 0 38.23 17.14 38.23 38.22z" fill="#132d77"/><g fill="#5fe1ff"><path d="m166.367 41.606c3.05-2.802 3.251-7.547.449-10.597-2.803-3.051-7.547-3.254-10.597-.448-13.764 12.646-21.658 30.61-21.658 49.287 0 18.678 7.894 36.643 21.658 49.288 1.44 1.324 3.259 1.978 5.072 1.978 2.026 0 4.046-.816 5.525-2.426 2.802-3.05 2.602-7.795-.449-10.597-10.681-9.813-16.807-23.753-16.807-38.243s6.127-28.429 16.807-38.242z"/><path d="m194.86 71.074c3.299-2.504 3.944-7.209 1.439-10.508-2.504-3.301-7.21-3.945-10.508-1.439-6.542 4.966-10.293 12.519-10.293 20.722 0 8.204 3.752 15.757 10.293 20.723 1.356 1.029 2.949 1.526 4.529 1.526 2.265 0 4.504-1.021 5.979-2.966 2.505-3.299 1.86-8.004-1.439-10.508-2.772-2.104-4.363-5.304-4.363-8.775s1.59-6.671 4.363-8.775z"/><path d="m137.865 146.761c-18.522-17.608-28.723-41.372-28.723-66.913 0-25.54 10.201-49.304 28.723-66.912 3.002-2.854 3.122-7.601.268-10.604-2.854-3.002-7.601-3.122-10.603-.268-21.531 20.468-33.388 48.092-33.388 77.783s11.857 57.316 33.388 77.784c1.451 1.38 3.31 2.064 5.167 2.064 1.983 0 3.962-.782 5.437-2.332 2.853-3.001 2.733-7.748-.269-10.602z"/><path d="m355.782 30.561c-3.05-2.805-7.795-2.602-10.597.448s-2.602 7.795.449 10.597c10.681 9.813 16.807 23.752 16.807 38.242 0 14.491-6.125 28.43-16.806 38.241-3.051 2.803-3.251 7.547-.449 10.598 1.479 1.609 3.499 2.426 5.525 2.426 1.813 0 3.631-.653 5.072-1.977 13.764-12.646 21.658-30.61 21.658-49.288 0-18.677-7.894-36.642-21.659-49.287z"/><path d="m326.211 59.126c-3.3-2.505-8.004-1.862-10.508 1.439-2.505 3.299-1.86 8.004 1.439 10.508 2.772 2.104 4.363 5.303 4.363 8.774s-1.59 6.671-4.363 8.775c-3.299 2.504-3.944 7.209-1.439 10.508 1.475 1.944 3.714 2.966 5.979 2.966 1.58 0 3.174-.497 4.529-1.526 6.542-4.966 10.293-12.519 10.293-20.723.001-8.202-3.751-15.755-10.293-20.721z"/><path d="m384.471 2.065c-3.001-2.854-7.749-2.733-10.603.268-2.854 3.003-2.734 7.75.268 10.604 18.522 17.608 28.723 41.372 28.723 66.912 0 25.541-10.201 49.305-28.723 66.913-3.002 2.854-3.122 7.601-.268 10.604 1.474 1.551 3.454 2.332 5.437 2.332 1.856 0 3.715-.685 5.167-2.064 21.531-20.468 33.388-48.093 33.388-77.784s-11.858-57.317-33.389-77.785z"/></g></g></svg>